<?xml version="1.0" encoding="UTF-8" standalone="no"?>
<!-- Created with Inkscape (http://www.inkscape.org/) -->

<svg
   width="148.57571mm"
   height="176.71521mm"
   viewBox="0 0 148.57572 176.71521"
   version="1.1"
   id="svg5"
   xml:space="preserve"
   sodipodi:docname="ial.svg"
   inkscape:version="1.2.2 (b0a8486541, 2022-12-01)"
   xmlns:inkscape="http://www.inkscape.org/namespaces/inkscape"
   xmlns:sodipodi="http://sodipodi.sourceforge.net/DTD/sodipodi-0.dtd"
   xmlns="http://www.w3.org/2000/svg"
   xmlns:svg="http://www.w3.org/2000/svg"><sodipodi:namedview
     id="namedview7"
     pagecolor="#ffffff"
     bordercolor="#000000"
     borderopacity="0.25"
     inkscape:showpageshadow="2"
     inkscape:pageopacity="0.0"
     inkscape:pagecheckerboard="0"
     inkscape:deskcolor="#d1d1d1"
     inkscape:document-units="mm"
     showgrid="true"
     inkscape:lockguides="true"
     inkscape:zoom="0.5946522"
     inkscape:cx="202.63946"
     inkscape:cy="294.28967"
     inkscape:window-width="1920"
     inkscape:window-height="1131"
     inkscape:window-x="0"
     inkscape:window-y="0"
     inkscape:window-maximized="1"
     inkscape:current-layer="g1863"><inkscape:grid
       type="xygrid"
       id="grid9"
       originx="-142.72902"
       originy="-168.54749" /></sodipodi:namedview><defs
     id="defs2" /><g
     inkscape:label="Layer 1"
     inkscape:groupmode="layer"
     id="layer1"
     transform="translate(-71.422932,-84.29145)"><g
       id="g1863"
       transform="matrix(2.0000085,0,0,2.0000085,-71.306686,-84.256757)"><g
         id="g11650"
         transform="matrix(0.83333328,0,0,0.83333328,18.112278,21.408734)"><rect
           style="fill:none;stroke:#000000;stroke-width:0.264582;stroke-dasharray:none"
           id="rect173"
           width="73.780533"
           height="17.369162"
           x="71.556076"
           y="114.46465" /><text
           xml:space="preserve"
           style="font-style:normal;font-variant:normal;font-weight:normal;font-stretch:normal;font-size:3.175px;font-family:sans-serif;-inkscape-font-specification:'sans-serif, Normal';font-variant-ligatures:normal;font-variant-caps:normal;font-variant-numeric:normal;font-variant-east-asian:normal;fill:none;stroke:#000000;stroke-width:0.3;stroke-dasharray:none"
           x="89.763054"
           y="124.28429"
           id="text1066"><tspan
             sodipodi:role="line"
             id="tspan1064"
             style="font-style:normal;font-variant:normal;font-weight:normal;font-stretch:normal;font-size:3.175px;font-family:sans-serif;-inkscape-font-specification:'sans-serif, Normal';font-variant-ligatures:normal;font-variant-caps:normal;font-variant-numeric:normal;font-variant-east-asian:normal;fill:#000000;fill-opacity:1;stroke:none;stroke-width:0.3;stroke-dasharray:none"
             x="89.763054"
             y="124.28429">Identity abstraction layer</tspan></text><g
           id="g1736"
           transform="translate(2.1166667)"
           style="stroke-width:0.264582;stroke-dasharray:none"><rect
             style="fill:none;stroke:#000000;stroke-width:0.264582;stroke-dasharray:none"
             id="rect1070"
             width="18.27799"
             height="18.27799"
             x="97.624565"
             y="84.619576" /><text
             xml:space="preserve"
             style="font-style:normal;font-variant:normal;font-weight:normal;font-stretch:normal;font-size:2.82221px;font-family:sans-serif;-inkscape-font-specification:'sans-serif, Normal';font-variant-ligatures:normal;font-variant-caps:normal;font-variant-numeric:normal;font-variant-east-asian:normal;fill:none;stroke:#000000;stroke-width:0.264582;stroke-dasharray:none"
             x="99.441338"
             y="94.684608"
             id="text1066-3"><tspan
               sodipodi:role="line"
               style="font-style:normal;font-variant:normal;font-weight:normal;font-stretch:normal;font-size:2.82221px;font-family:sans-serif;-inkscape-font-specification:'sans-serif, Normal';font-variant-ligatures:normal;font-variant-caps:normal;font-variant-numeric:normal;font-variant-east-asian:normal;fill:#000000;fill-opacity:1;stroke:none;stroke-width:0.264582;stroke-dasharray:none"
               x="99.441338"
               y="94.684608"
               id="tspan1155">Dashboard</tspan></text><text
             xml:space="preserve"
             style="font-style:normal;font-variant:normal;font-weight:normal;font-stretch:normal;font-size:1.58749px;font-family:sans-serif;-inkscape-font-specification:'sans-serif, Normal';font-variant-ligatures:normal;font-variant-caps:normal;font-variant-numeric:normal;font-variant-east-asian:normal;text-align:center;text-anchor:middle;fill:#000000;fill-opacity:1;stroke:none;stroke-width:0.264582;stroke-dasharray:none;stroke-opacity:1"
             x="108.42243"
             y="73.353798"
             id="text4861"><tspan
               sodipodi:role="line"
               id="tspan4859"
               style="stroke-width:0.264582;stroke-dasharray:none"
               x="108.42243"
               y="73.353798"></tspan></text></g><g
           id="g1741"
           style="stroke-width:0.264582;stroke-dasharray:none"><rect
             style="fill:none;stroke:#000000;stroke-width:0.264582;stroke-dasharray:none"
             id="rect1070-6"
             width="18.27799"
             height="18.27799"
             x="127.24177"
             y="84.537544" /><text
             xml:space="preserve"
             style="font-style:normal;font-variant:normal;font-weight:normal;font-stretch:normal;font-size:3.175px;font-family:sans-serif;-inkscape-font-specification:'sans-serif, Normal';font-variant-ligatures:normal;font-variant-caps:normal;font-variant-numeric:normal;font-variant-east-asian:normal;text-align:center;text-anchor:middle;fill:none;stroke:#000000;stroke-width:0.264582;stroke-dasharray:none"
             x="136.28392"
             y="92.449402"
             id="text1066-3-2"><tspan
               sodipodi:role="line"
               style="font-style:normal;font-variant:normal;font-weight:normal;font-stretch:normal;font-size:3.175px;font-family:sans-serif;-inkscape-font-specification:'sans-serif, Normal';font-variant-ligatures:normal;font-variant-caps:normal;font-variant-numeric:normal;font-variant-east-asian:normal;text-align:center;text-anchor:middle;fill:#000000;fill-opacity:1;stroke:none;stroke-width:0.264582;stroke-dasharray:none"
               x="136.28392"
               y="92.449402"
               id="tspan1155-9">API</tspan><tspan
               sodipodi:role="line"
               style="font-style:normal;font-variant:normal;font-weight:normal;font-stretch:normal;font-size:3.175px;font-family:sans-serif;-inkscape-font-specification:'sans-serif, Normal';font-variant-ligatures:normal;font-variant-caps:normal;font-variant-numeric:normal;font-variant-east-asian:normal;text-align:center;text-anchor:middle;fill:#000000;fill-opacity:1;stroke:none;stroke-width:0.264582;stroke-dasharray:none"
               x="136.28392"
               y="96.418152"
               id="tspan10805">Gateway</tspan></text></g><rect
           style="fill:none;stroke:#000000;stroke-width:0.264582;stroke-dasharray:none"
           id="rect1070-7"
           width="18.27799"
           height="18.27799"
           x="71.729057"
           y="84.406036" /><text
           xml:space="preserve"
           style="font-style:normal;font-variant:normal;font-weight:normal;font-stretch:normal;font-size:3.175px;font-family:sans-serif;-inkscape-font-specification:'sans-serif, Normal';font-variant-ligatures:normal;font-variant-caps:normal;font-variant-numeric:normal;font-variant-east-asian:normal;fill:#000000;fill-opacity:1;stroke:none;stroke-width:0.132291;stroke-dasharray:none;stroke-opacity:1"
           x="80.848999"
           y="92.678253"
           id="text1066-3-5"><tspan
             sodipodi:role="line"
             style="font-style:normal;font-variant:normal;font-weight:normal;font-stretch:normal;font-size:3.175px;font-family:sans-serif;-inkscape-font-specification:'sans-serif, Normal';font-variant-ligatures:normal;font-variant-caps:normal;font-variant-numeric:normal;font-variant-east-asian:normal;text-align:center;text-anchor:middle;fill:#000000;fill-opacity:1;stroke:none;stroke-width:0.132291;stroke-dasharray:none;stroke-opacity:1"
             x="80.848999"
             y="92.678253"
             id="tspan1155-5">Dev</tspan><tspan
             sodipodi:role="line"
             style="font-style:normal;font-variant:normal;font-weight:normal;font-stretch:normal;font-size:3.175px;font-family:sans-serif;-inkscape-font-specification:'sans-serif, Normal';font-variant-ligatures:normal;font-variant-caps:normal;font-variant-numeric:normal;font-variant-east-asian:normal;text-align:center;text-anchor:middle;fill:#000000;fill-opacity:1;stroke:none;stroke-width:0.132291;stroke-dasharray:none;stroke-opacity:1"
             x="80.848999"
             y="96.647003"
             id="tspan10803">Portal</tspan></text><g
           id="g1748"
           transform="translate(0,-5.2916669)"
           style="stroke-width:0.264582;stroke-dasharray:none"><rect
             style="fill:none;stroke:#000000;stroke-width:0.264582;stroke-dasharray:none"
             id="rect1070-7-1"
             width="18.27799"
             height="18.27799"
             x="127.19473"
             y="148.50629" /><text
             xml:space="preserve"
             style="font-style:normal;font-variant:normal;font-weight:normal;font-stretch:normal;font-size:3.175px;font-family:sans-serif;-inkscape-font-specification:'sans-serif, Normal';font-variant-ligatures:normal;font-variant-caps:normal;font-variant-numeric:normal;font-variant-east-asian:normal;fill:none;stroke:#000000;stroke-width:0.264582;stroke-dasharray:none"
             x="136.18393"
             y="154.81546"
             id="text1066-3-5-2"><tspan
               sodipodi:role="line"
               style="font-style:normal;font-variant:normal;font-weight:normal;font-stretch:normal;font-size:3.175px;font-family:sans-serif;-inkscape-font-specification:'sans-serif, Normal';font-variant-ligatures:normal;font-variant-caps:normal;font-variant-numeric:normal;font-variant-east-asian:normal;text-align:center;text-anchor:middle;fill:#000000;fill-opacity:1;stroke:none;stroke-width:0.264582;stroke-dasharray:none"
               x="136.18393"
               y="154.81546"
               id="tspan1155-5-0">3rd</tspan><tspan
               sodipodi:role="line"
               style="font-style:normal;font-variant:normal;font-weight:normal;font-stretch:normal;font-size:3.175px;font-family:sans-serif;-inkscape-font-specification:'sans-serif, Normal';font-variant-ligatures:normal;font-variant-caps:normal;font-variant-numeric:normal;font-variant-east-asian:normal;text-align:center;text-anchor:middle;fill:#000000;fill-opacity:1;stroke:none;stroke-width:0.264582;stroke-dasharray:none"
               x="136.18393"
               y="158.78421"
               id="tspan1290">Party</tspan><tspan
               sodipodi:role="line"
               style="font-style:normal;font-variant:normal;font-weight:normal;font-stretch:normal;font-size:3.175px;font-family:sans-serif;-inkscape-font-specification:'sans-serif, Normal';font-variant-ligatures:normal;font-variant-caps:normal;font-variant-numeric:normal;font-variant-east-asian:normal;text-align:center;text-anchor:middle;fill:#000000;fill-opacity:1;stroke:none;stroke-width:0.264582;stroke-dasharray:none"
               x="136.18393"
               y="162.75296"
               id="tspan1292">IdP</tspan></text></g><g
           style="fill:#000000;fill-opacity:1;stroke:#000000;stroke-width:0.351921;stroke-dasharray:none;stroke-opacity:1"
           id="g1715"
           transform="matrix(0.37591155,0,0,0.37591155,70.424727,142.84422)"><path
             d="M 52.354,8.51 C 51.196,4.22 42.577,0 27.5,0 12.423,0 3.803,4.22 2.646,8.51 2.562,8.657 2.5,8.818 2.5,9 V 9.5 21 21.5 22 33 33.5 34 46 c 0,0.162 0.043,0.315 0.117,0.451 C 3.798,51.346 14.364,55 27.5,55 40.606,55 51.155,51.361 52.375,46.484 52.455,46.341 52.5,46.176 52.5,46 V 34 33.5 33 22 21.5 21 9.5 9 c 0,-0.182 -0.062,-0.343 -0.146,-0.49 z m -1.933,25.475 c -0.028,0.121 -0.067,0.241 -0.116,0.363 -0.04,0.099 -0.089,0.198 -0.143,0.297 -0.067,0.123 -0.142,0.246 -0.231,0.369 -0.066,0.093 -0.141,0.185 -0.219,0.277 -0.111,0.131 -0.229,0.262 -0.363,0.392 -0.081,0.079 -0.17,0.157 -0.26,0.236 -0.164,0.143 -0.335,0.285 -0.526,0.426 -0.082,0.061 -0.17,0.12 -0.257,0.18 -0.226,0.156 -0.462,0.311 -0.721,0.463 -0.068,0.041 -0.141,0.08 -0.212,0.12 -0.298,0.168 -0.609,0.335 -0.945,0.497 -0.043,0.021 -0.088,0.041 -0.132,0.061 -0.375,0.177 -0.767,0.351 -1.186,0.519 -0.012,0.005 -0.024,0.009 -0.036,0.014 -2.271,0.907 -5.176,1.67 -8.561,2.17 -0.017,0.002 -0.034,0.004 -0.051,0.007 -0.658,0.097 -1.333,0.183 -2.026,0.259 -0.113,0.012 -0.232,0.02 -0.346,0.032 -0.605,0.063 -1.217,0.121 -1.847,0.167 -0.288,0.021 -0.59,0.031 -0.883,0.049 -0.474,0.028 -0.943,0.059 -1.429,0.076 C 29.137,40.984 28.327,41 27.5,41 26.673,41 25.863,40.984 25.068,40.956 24.582,40.939 24.113,40.907 23.639,40.88 23.346,40.863 23.044,40.852 22.756,40.831 22.126,40.785 21.514,40.727 20.909,40.664 20.795,40.652 20.676,40.644 20.563,40.632 19.87,40.556 19.195,40.469 18.537,40.373 18.52,40.371 18.503,40.369 18.486,40.366 15.101,39.866 12.196,39.103 9.925,38.196 9.913,38.192 9.901,38.187 9.889,38.182 9.47,38.014 9.077,37.84 8.703,37.663 8.66,37.642 8.614,37.622 8.571,37.602 8.235,37.44 7.924,37.274 7.626,37.105 7.556,37.065 7.482,37.026 7.414,36.985 7.155,36.833 6.919,36.678 6.693,36.522 6.607,36.462 6.518,36.403 6.436,36.342 6.245,36.201 6.074,36.059 5.91,35.916 5.821,35.838 5.731,35.76 5.65,35.68 5.516,35.55 5.398,35.42 5.287,35.288 5.209,35.196 5.134,35.104 5.068,35.011 4.98,34.888 4.905,34.765 4.837,34.642 4.783,34.543 4.735,34.444 4.694,34.345 4.645,34.224 4.606,34.103 4.578,33.982 4.541,33.823 4.5,33.661 4.5,33.5 4.5,33.387 4.513,33.274 4.531,33.162 4.556,33.011 4.542,32.86 4.5,32.717 v -7.424 c 0.028,0.026 0.063,0.051 0.092,0.077 0.218,0.192 0.44,0.383 0.69,0.567 C 9.049,28.786 16.582,31 27.5,31 c 10.872,0 18.386,-2.196 22.169,-5.028 0.302,-0.22 0.574,-0.447 0.83,-0.678 L 50.5,25.293 v 7.424 c -0.042,0.143 -0.056,0.294 -0.031,0.445 0.019,0.112 0.031,0.225 0.031,0.338 0,0.161 -0.041,0.323 -0.079,0.485 z M 50.5,13.293 v 7.424 c -0.042,0.143 -0.056,0.294 -0.031,0.445 0.019,0.112 0.031,0.225 0.031,0.338 0,0.161 -0.041,0.323 -0.079,0.485 -0.028,0.121 -0.067,0.241 -0.116,0.363 -0.04,0.099 -0.089,0.198 -0.143,0.297 -0.067,0.123 -0.142,0.246 -0.231,0.369 -0.066,0.093 -0.141,0.185 -0.219,0.277 -0.111,0.131 -0.229,0.262 -0.363,0.392 -0.081,0.079 -0.17,0.157 -0.26,0.236 -0.164,0.143 -0.335,0.285 -0.526,0.426 -0.082,0.061 -0.17,0.12 -0.257,0.18 -0.226,0.156 -0.462,0.311 -0.721,0.463 -0.068,0.041 -0.141,0.08 -0.212,0.12 -0.298,0.168 -0.609,0.335 -0.945,0.497 -0.043,0.021 -0.088,0.041 -0.132,0.061 -0.375,0.177 -0.767,0.351 -1.186,0.519 -0.012,0.005 -0.024,0.009 -0.036,0.014 -2.271,0.907 -5.176,1.67 -8.561,2.17 -0.017,0.002 -0.034,0.004 -0.051,0.007 -0.658,0.097 -1.333,0.183 -2.026,0.259 -0.113,0.012 -0.232,0.02 -0.346,0.032 -0.605,0.063 -1.217,0.121 -1.847,0.167 -0.288,0.021 -0.59,0.031 -0.883,0.049 -0.474,0.028 -0.943,0.059 -1.429,0.076 C 29.137,28.984 28.327,29 27.5,29 26.673,29 25.863,28.984 25.068,28.956 24.582,28.939 24.113,28.907 23.639,28.88 23.346,28.863 23.044,28.852 22.756,28.831 22.126,28.785 21.514,28.727 20.909,28.664 20.795,28.652 20.676,28.644 20.563,28.632 19.87,28.556 19.195,28.469 18.537,28.373 18.52,28.371 18.503,28.369 18.486,28.366 15.101,27.866 12.196,27.103 9.925,26.196 9.913,26.192 9.901,26.187 9.889,26.182 9.47,26.014 9.077,25.84 8.703,25.663 8.66,25.642 8.614,25.622 8.571,25.602 8.235,25.44 7.924,25.274 7.626,25.105 7.556,25.065 7.482,25.026 7.414,24.985 7.155,24.833 6.919,24.678 6.693,24.522 6.607,24.462 6.518,24.403 6.436,24.342 6.245,24.201 6.074,24.059 5.91,23.916 5.821,23.838 5.731,23.76 5.65,23.68 5.516,23.55 5.398,23.42 5.287,23.288 5.209,23.196 5.134,23.104 5.068,23.011 4.98,22.888 4.905,22.765 4.837,22.642 4.783,22.543 4.735,22.444 4.694,22.345 4.645,22.224 4.606,22.103 4.578,21.982 4.541,21.823 4.5,21.661 4.5,21.5 4.5,21.387 4.513,21.274 4.531,21.162 4.556,21.011 4.542,20.86 4.5,20.717 v -7.424 c 0.12,0.109 0.257,0.216 0.387,0.324 0.072,0.06 0.139,0.12 0.215,0.18 0.3,0.236 0.624,0.469 0.975,0.696 0.073,0.047 0.155,0.093 0.231,0.14 0.294,0.183 0.605,0.362 0.932,0.538 0.121,0.065 0.242,0.129 0.367,0.193 0.365,0.186 0.748,0.367 1.151,0.542 0.066,0.029 0.126,0.059 0.193,0.087 0.469,0.199 0.967,0.389 1.485,0.573 0.143,0.051 0.293,0.099 0.44,0.149 0.412,0.139 0.838,0.272 1.279,0.401 0.159,0.046 0.315,0.094 0.478,0.138 0.585,0.162 1.189,0.316 1.823,0.458 0.087,0.02 0.181,0.036 0.269,0.055 0.559,0.122 1.139,0.235 1.735,0.341 0.202,0.036 0.407,0.07 0.613,0.104 0.567,0.093 1.151,0.178 1.75,0.256 0.154,0.02 0.301,0.043 0.457,0.062 0.744,0.09 1.514,0.167 2.305,0.233 0.195,0.016 0.398,0.028 0.596,0.042 0.633,0.046 1.28,0.084 1.942,0.114 0.241,0.011 0.481,0.022 0.727,0.031 0.862,0.029 1.74,0.05 2.65,0.05 0.91,0 1.788,-0.021 2.65,-0.05 0.245,-0.009 0.485,-0.02 0.727,-0.031 0.662,-0.03 1.309,-0.068 1.942,-0.114 0.198,-0.015 0.4,-0.026 0.596,-0.042 0.791,-0.065 1.561,-0.143 2.305,-0.233 0.156,-0.019 0.303,-0.042 0.457,-0.062 0.599,-0.078 1.182,-0.163 1.75,-0.256 0.206,-0.034 0.411,-0.068 0.613,-0.104 0.596,-0.106 1.176,-0.219 1.735,-0.341 0.088,-0.019 0.182,-0.036 0.269,-0.055 0.634,-0.142 1.238,-0.297 1.823,-0.458 0.163,-0.045 0.319,-0.092 0.478,-0.138 0.441,-0.129 0.867,-0.262 1.279,-0.401 0.147,-0.05 0.297,-0.098 0.44,-0.149 0.518,-0.184 1.017,-0.374 1.485,-0.573 0.067,-0.028 0.127,-0.058 0.193,-0.087 0.403,-0.176 0.786,-0.356 1.151,-0.542 0.125,-0.064 0.247,-0.128 0.367,-0.193 0.327,-0.175 0.638,-0.354 0.932,-0.538 0.076,-0.047 0.158,-0.093 0.231,-0.14 0.351,-0.227 0.675,-0.459 0.975,-0.696 0.075,-0.06 0.142,-0.12 0.215,-0.18 0.13,-0.108 0.267,-0.215 0.387,-0.324 z M 27.5,2 c 13.555,0 23,3.952 23,7.5 0,3.548 -9.445,7.5 -23,7.5 C 13.945,17 4.5,13.048 4.5,9.5 4.5,5.952 13.945,2 27.5,2 Z m 23,43.703 c -0.014,0.044 -0.024,0.089 -0.032,0.135 C 49.901,49.297 40.536,53 27.5,53 14.464,53 5.099,49.297 4.532,45.838 4.524,45.793 4.513,45.749 4.5,45.707 v -8.414 c 0.028,0.026 0.063,0.051 0.092,0.077 0.218,0.192 0.44,0.383 0.69,0.567 C 9.049,40.786 16.582,43 27.5,43 c 10.872,0 18.386,-2.196 22.169,-5.028 0.302,-0.22 0.574,-0.447 0.83,-0.678 L 50.5,37.293 Z"
             id="path1707"
             style="fill:#000000;fill-opacity:1;stroke:#000000;stroke-width:0.351921;stroke-dasharray:none;stroke-opacity:1" /></g><path
           style="fill:none;stroke:#000000;stroke-width:0.264582;stroke-dasharray:none"
           d="m 80.884933,133.97259 0.0474,6.76531"
           id="path1752-4-0" /><path
           style="fill:none;stroke:#000000;stroke-width:0.264582;stroke-dasharray:none"
           d="m 137.43594,133.2274 0.0474,6.76531"
           id="path1752-4-3" /><path
           style="fill:none;stroke:#000000;stroke-width:0.264582;stroke-dasharray:none"
           d="m 80.556364,104.42529 0.04736,6.76531"
           id="path1752" /><path
           style="fill:none;stroke:#000000;stroke-width:0.264582;stroke-dasharray:none"
           d="m 109.74564,104.66297 0.0474,6.76531"
           id="path1752-4" /><path
           style="fill:none;stroke:#000000;stroke-width:0.264582;stroke-dasharray:none"
           d="m 137.50405,105.23621 0.0474,6.76531"
           id="path1752-4-5" /><text
           xml:space="preserve"
           style="font-style:normal;font-variant:normal;font-weight:normal;font-stretch:normal;font-size:2.46944px;font-family:sans-serif;-inkscape-font-specification:'sans-serif, Normal';font-variant-ligatures:normal;font-variant-caps:normal;font-variant-numeric:normal;font-variant-east-asian:normal;text-align:center;text-anchor:middle;fill:#000000;fill-opacity:1;stroke:none;stroke-width:0.264582;stroke-dasharray:none;stroke-opacity:1"
           x="80.938858"
           y="166.43268"
           id="text6353"><tspan
             sodipodi:role="line"
             style="stroke-width:0.264582"
             x="80.938858"
             y="166.43268"
             id="tspan6357">Internal </tspan><tspan
             sodipodi:role="line"
             style="stroke-width:0.264582"
             x="80.938858"
             y="169.51949"
             id="tspan10031">Identity</tspan><tspan
             sodipodi:role="line"
             style="stroke-width:0.264582"
             x="80.938858"
             y="172.60628"
             id="tspan10033">Store</tspan></text></g></g></g></svg>
